<svg width="378" height="115" viewBox="0 0 378 115" fill="none" xmlns="http://www.w3.org/2000/svg">
<path d="M99.9318 61.261V86.4883H87.8295V42.8519H99.3636V50.5508H99.875C100.841 48.0129 102.46 46.0053 104.733 44.5281C107.006 43.0318 109.761 42.2837 113 42.2837C116.03 42.2837 118.672 42.9466 120.926 44.2724C123.18 45.5981 124.932 47.4921 126.182 49.9542C127.432 52.3974 128.057 55.314 128.057 58.7042V86.4883H115.955V60.8633C115.973 58.1928 115.292 56.1095 113.909 54.6133C112.527 53.0981 110.623 52.3406 108.199 52.3406C106.57 52.3406 105.131 52.6909 103.881 53.3917C102.65 54.0924 101.684 55.1152 100.983 56.4599C100.301 57.7856 99.9508 59.386 99.9318 61.261ZM137.595 86.4883V42.8519H149.697V86.4883H137.595ZM143.675 37.2269C141.875 37.2269 140.332 36.6303 139.044 35.4371C137.775 34.225 137.141 32.7762 137.141 31.0906C137.141 29.4239 137.775 27.994 139.044 26.8008C140.332 25.5887 141.875 24.9826 143.675 24.9826C145.474 24.9826 147.008 25.5887 148.277 26.8008C149.565 27.994 150.209 29.4239 150.209 31.0906C150.209 32.7762 149.565 34.225 148.277 35.4371C147.008 36.6303 145.474 37.2269 143.675 37.2269ZM191.182 45.0394C190.955 42.7477 189.979 40.9674 188.256 39.6985C186.532 38.4296 184.193 37.7951 181.239 37.7951C179.231 37.7951 177.536 38.0792 176.153 38.6474C174.771 39.1966 173.71 39.9637 172.972 40.9485C172.252 41.9334 171.892 43.0508 171.892 44.3008C171.854 45.3424 172.072 46.2515 172.545 47.0281C173.038 47.8046 173.71 48.4769 174.562 49.0451C175.415 49.5943 176.4 50.0773 177.517 50.494C178.634 50.8917 179.828 51.2326 181.097 51.5167L186.324 52.7667C188.862 53.3349 191.191 54.0924 193.312 55.0394C195.434 55.9864 197.271 57.1512 198.824 58.5337C200.377 59.9163 201.58 61.5451 202.432 63.4201C203.303 65.2951 203.748 67.4447 203.767 69.869C203.748 73.4296 202.839 76.5167 201.04 79.1303C199.259 81.725 196.684 83.7421 193.312 85.1815C189.96 86.6019 185.917 87.3121 181.182 87.3121C176.485 87.3121 172.394 86.5924 168.909 85.1531C165.443 83.7137 162.735 81.583 160.784 78.761C158.852 75.9201 157.839 72.4068 157.744 68.2212H169.648C169.78 70.172 170.339 71.8008 171.324 73.1076C172.328 74.3955 173.663 75.3709 175.33 76.0337C177.015 76.6777 178.919 76.9996 181.04 76.9996C183.123 76.9996 184.932 76.6966 186.466 76.0906C188.019 75.4845 189.222 74.6417 190.074 73.5621C190.926 72.4826 191.352 71.2421 191.352 69.8406C191.352 68.5337 190.964 67.4353 190.188 66.5451C189.43 65.6549 188.313 64.8974 186.835 64.2724C185.377 63.6474 183.587 63.0792 181.466 62.5678L175.131 60.9769C170.225 59.7837 166.352 57.9182 163.511 55.3803C160.67 52.8424 159.259 49.4239 159.278 45.1246C159.259 41.6019 160.197 38.5243 162.091 35.8917C164.004 33.2591 166.627 31.2042 169.96 29.7269C173.294 28.2496 177.081 27.511 181.324 27.511C185.642 27.511 189.411 28.2496 192.631 29.7269C195.869 31.2042 198.388 33.2591 200.188 35.8917C201.987 38.5243 202.915 41.5735 202.972 45.0394H191.182ZM235.024 42.8519V51.9428H208.746V42.8519H235.024ZM214.712 32.3974H226.814V73.0792C226.814 74.1966 226.984 75.0678 227.325 75.6928C227.666 76.2989 228.14 76.725 228.746 76.9712C229.371 77.2174 230.09 77.3406 230.905 77.3406C231.473 77.3406 232.041 77.2932 232.609 77.1985C233.178 77.0849 233.613 76.9996 233.916 76.9428L235.82 85.9485C235.214 86.1379 234.361 86.3557 233.263 86.6019C232.164 86.8671 230.829 87.0281 229.257 87.0849C226.34 87.1985 223.784 86.8103 221.587 85.9201C219.409 85.0299 217.714 83.6474 216.501 81.7724C215.289 79.8974 214.693 77.5299 214.712 74.6701V32.3974ZM255.351 87.3121C252.567 87.3121 250.086 86.8292 247.908 85.8633C245.73 84.8784 244.006 83.4296 242.737 81.5167C241.487 79.5849 240.862 77.1796 240.862 74.3008C240.862 71.8765 241.307 69.8406 242.197 68.1928C243.088 66.5451 244.3 65.2193 245.834 64.2156C247.368 63.2118 249.11 62.4542 251.061 61.9428C253.031 61.4315 255.095 61.0716 257.254 60.8633C259.792 60.5981 261.838 60.3519 263.391 60.1246C264.944 59.8784 266.071 59.5186 266.771 59.0451C267.472 58.5716 267.822 57.8709 267.822 56.9428V56.7724C267.822 54.9731 267.254 53.5811 266.118 52.5962C265 51.6114 263.41 51.119 261.345 51.119C259.167 51.119 257.434 51.6019 256.146 52.5678C254.858 53.5148 254.006 54.708 253.589 56.1474L242.396 55.2383C242.964 52.5868 244.082 50.2951 245.749 48.3633C247.415 46.4125 249.565 44.9163 252.197 43.8746C254.849 42.814 257.917 42.2837 261.402 42.2837C263.826 42.2837 266.146 42.5678 268.362 43.136C270.597 43.7042 272.576 44.5849 274.3 45.7781C276.042 46.9712 277.415 48.5053 278.419 50.3803C279.423 52.2364 279.925 54.4618 279.925 57.0565V86.4883H268.447V80.4371H268.107C267.406 81.8008 266.468 83.0034 265.294 84.0451C264.12 85.0678 262.709 85.8728 261.061 86.4599C259.413 87.0281 257.51 87.3121 255.351 87.3121ZM258.817 78.9599C260.597 78.9599 262.169 78.6095 263.533 77.9087C264.896 77.189 265.966 76.2231 266.743 75.011C267.519 73.7989 267.908 72.4258 267.908 70.8917V66.261C267.529 66.5072 267.008 66.7345 266.345 66.9428C265.701 67.1322 264.972 67.3121 264.158 67.4826C263.343 67.6341 262.529 67.7762 261.714 67.9087C260.9 68.0224 260.161 68.1265 259.499 68.2212C258.078 68.4296 256.838 68.761 255.777 69.2156C254.716 69.6701 253.893 70.2856 253.305 71.0621C252.718 71.8197 252.425 72.7667 252.425 73.9031C252.425 75.5508 253.021 76.8103 254.214 77.6815C255.427 78.5337 256.961 78.9599 258.817 78.9599ZM309.03 87.3406C304.56 87.3406 300.715 86.3936 297.496 84.4996C294.295 82.5868 291.833 79.9353 290.109 76.5451C288.405 73.1549 287.553 69.2534 287.553 64.8406C287.553 60.3709 288.414 56.4504 290.138 53.0792C291.88 49.689 294.352 47.047 297.553 45.1531C300.753 43.2402 304.56 42.2837 308.973 42.2837C312.78 42.2837 316.113 42.975 318.973 44.3576C321.833 45.7402 324.096 47.6815 325.763 50.1815C327.429 52.6815 328.348 55.6171 328.518 58.9883H317.098C316.776 56.8102 315.924 55.0584 314.541 53.7326C313.178 52.3879 311.388 51.7156 309.172 51.7156C307.297 51.7156 305.659 52.2269 304.257 53.2496C302.875 54.2534 301.795 55.7212 301.018 57.6531C300.242 59.5849 299.854 61.9239 299.854 64.6701C299.854 67.4542 300.232 69.8216 300.99 71.7724C301.767 73.7231 302.856 75.2099 304.257 76.2326C305.659 77.2553 307.297 77.7667 309.172 77.7667C310.554 77.7667 311.795 77.4826 312.893 76.9144C314.011 76.3462 314.929 75.5224 315.649 74.4428C316.388 73.3443 316.871 72.0281 317.098 70.494H328.518C328.329 73.8273 327.42 76.7629 325.791 79.3008C324.181 81.8197 321.956 83.7894 319.115 85.2099C316.274 86.6303 312.912 87.3406 309.03 87.3406ZM346.146 42.8519L354.158 58.1076L362.368 42.8519H374.783L362.141 64.6701L375.124 86.4883H362.766L354.158 71.4031L345.692 86.4883H333.192L346.146 64.6701L333.646 42.8519H346.146Z" fill="#193E6F"/>
<path d="M0 2.44775H85V27.6169H0V2.44775Z" fill="#193E6F" fill-opacity="0.4"/>
<rect y="27.6167" width="85" height="25.1691" fill="#193E6F" fill-opacity="0.6"/>
<path d="M0 52.7856H85V77.9548H0V52.7856Z" fill="#193E6F" fill-opacity="0.8"/>
<path d="M0 77.9551H85V103.124H0V77.9551Z" fill="#193E6F"/>
<path d="M56.6559 22.7977H70.956V66.7217C70.956 71.6535 69.7781 75.9689 67.4222 79.6677C65.0884 83.3666 61.8189 86.2508 57.6136 88.3204C53.4084 90.368 48.5096 91.3918 42.9173 91.3918C37.3029 91.3918 32.3931 90.368 28.1879 88.3204C23.9826 86.2508 20.7131 83.3666 18.3793 79.6677C16.0455 75.9689 14.8786 71.6535 14.8786 66.7217V22.7977H29.1786V65.4998C29.1786 68.0758 29.7401 70.3655 30.8629 72.3691C32.0078 74.3726 33.6151 75.9469 35.6847 77.0918C37.7543 78.2366 40.1651 78.8091 42.9173 78.8091C45.6914 78.8091 48.1023 78.2366 50.1499 77.0918C52.2195 75.9469 53.8157 74.3726 54.9386 72.3691C56.0835 70.3655 56.6559 68.0758 56.6559 65.4998V22.7977Z" fill="white"/>
</svg>
